<?xml version="1.0" encoding="UTF-8"?>
<svg id="Layer_1" data-name="Layer 1" xmlns="http://www.w3.org/2000/svg" viewBox="0 0 229.828 64.228">
  <defs>
    <style>
      .cls-1, .cls-2, .cls-3 {
        fill: #f29438;
      }

      .cls-2 {
        stroke-width: .3px;
      }

      .cls-2, .cls-3 {
        stroke: #3f3124;
        stroke-miterlimit: 10;
      }

      .cls-3 {
        stroke-width: .25px;
      }
    </style>
  </defs>
  <path class="cls-2" d="M111.125,30.989s-12.831,13.548-62.06,9.29c0,0-43.811-6-28.714-25.548,0,0,47.806-23.032,90.194-1.935l4.839-.581S90.222-6.559,34.286,2.731C-21.649,12.022,6.996,31.57,11.254,33.506s26.516,13.935,69.29,9.29c0,0,19.815-1.742,35.94-11.419l-5.359-.387ZM7.448,22.663c-.226-2.29.3-4.87,1.387-6.323C21.643-.771,71.383,2.695,71.383,2.695,35.512,2.695,12.996,11.68,12.996,22.003c0,13.015,29.032,18.305,29.032,18.305C10.674,36.566,7.674,24.953,7.448,22.663Z"/>
  <g>
    <path class="cls-3" d="M6.065,5.405l58.065,17.548,165.677,20.903L6.065,5.405ZM26.374,10.513l148.465,25.086-109.677-13.935L26.374,10.513Z"/>
    <polygon class="cls-3" points="6.065 5.405 94.968 63.728 64.129 22.953 6.065 5.405"/>
    <polygon class="cls-1" points="8.671 6.849 6.589 5.61 11.859 6.539 64.238 22.486 63.899 23.55 8.671 6.849"/>
  </g>
</svg>