<?xml version="1.0" encoding="UTF-8"?>
<svg id="Layer_1" data-name="Layer 1" xmlns="http://www.w3.org/2000/svg" viewBox="0 0 230.139 122.419">
  <defs>
    <style>
      .cls-1, .cls-2, .cls-3 {
        fill: #f29438;
      }

      .cls-2 {
        stroke-width: .3px;
      }

      .cls-2, .cls-3 {
        stroke: #3f3124;
        stroke-miterlimit: 10;
      }

      .cls-3 {
        stroke-width: .25px;
      }
    </style>
  </defs>
  <path class="cls-2" d="M111.457,59.592s-12.831,26.001-62.06,17.829c0,0-43.811-11.515-28.714-49.03,0,0,47.806-44.201,90.194-3.714l4.839-1.114S90.554-12.467,34.619,5.362C-21.317,23.191,7.328,60.706,11.586,64.421s26.516,26.743,69.29,17.829c0,0,19.815-3.343,35.94-21.915l-5.359-.743ZM7.78,43.613c-.226-4.395.3-9.347,1.387-12.134C21.975-1.359,71.715,5.293,71.715,5.293,35.844,5.293,13.328,22.535,13.328,42.347c0,24.976,29.032,35.129,29.032,35.129C11.006,70.294,8.006,48.008,7.78,43.613Z"/>
  <g>
    <path class="cls-3" d="M6.397,10.493l58.065,33.677,165.677,40.115L6.397,10.493ZM26.706,20.296l148.465,48.141-109.677-26.743L26.706,20.296Z"/>
    <polygon class="cls-3" points="6.397 10.493 95.3 122.419 64.461 44.17 6.397 10.493"/>
    <polygon class="cls-1" points="9.003 13.264 6.921 10.887 12.191 12.669 64.57 43.272 64.232 45.315 9.003 13.264"/>
  </g>
</svg>